# This file uses centimeters as units for non-parametric coordinates.

mtllib cube.mtl
g default
v 0.000000 0.000000 10.000000
v 0.000000 10.000000 0.000000
v 0.000000 0.000000 0.000000
v 10.000000 0.000000 0.000000
v 0.000000 10.000000 9.800020
v 0.000000 9.800020 10.000000
v 9.800020 10.000000 9.800020
v 9.800020 9.800020 10.000000
v 10.000000 9.800020 9.800020
v 10.000000 0.000000 9.800020
v 9.800020 0.000000 10.000000
v 10.000000 9.800020 0.000000
v 9.800020 10.000000 0.000000
vt 0.125000 0.000000
vt 0.370001 0.250000
vt 0.125000 0.250000
vt 0.625000 0.750000
vt 0.625000 0.995000
vt 0.620000 1.000000
vt 0.375000 1.000000
vt 0.625000 0.505000
vt 0.375000 0.750000
vt 0.375000 0.245001
vt 0.625000 0.254999
vt 0.620000 0.500000
vt 0.620000 0.245001
vt 0.630000 0.000000
vt 0.375000 0.000000
vt 0.620000 0.000000
vt 0.375000 0.254999
vt 0.620000 0.254999
vt 0.375000 0.500000
vt 0.630000 0.245001
vt 0.875000 0.000000
vt 0.875000 0.245001
vn 0.000000 0.000000 -1.000000
vn 0.000000 0.000000 -1.000000
vn 0.000000 0.000000 -1.000000
vn 0.000000 0.000000 -1.000000
vn 0.000000 0.000000 -1.000000
vn 0.000000 -1.000000 0.000000
vn 0.000000 -1.000000 0.000000
vn 0.000000 -1.000000 0.000000
vn 0.000000 -1.000000 0.000000
vn 0.000000 -1.000000 0.000000
vn -1.000000 0.000000 0.000000
vn -1.000000 0.000000 0.000000
vn -1.000000 0.000000 0.000000
vn -1.000000 0.000000 0.000000
vn -1.000000 0.000000 0.000000
vn 0.000000 0.707107 0.707107
vn 0.000000 0.707107 0.707107
vn 0.000000 0.707107 0.707107
vn 0.000000 0.707107 0.707107
vn 0.707107 0.707107 0.000000
vn 0.707107 0.707107 0.000000
vn 0.707107 0.707107 0.000000
vn 0.707107 0.707107 0.000000
vn 0.707107 0.000000 0.707107
vn 0.707107 0.000000 0.707107
vn 0.707107 0.000000 0.707107
vn 0.707107 0.000000 0.707107
vn 0.000000 0.000000 1.000000
vn 0.000000 0.000000 1.000000
vn 0.000000 0.000000 1.000000
vn 0.000000 0.000000 1.000000
vn 0.000000 1.000000 0.000000
vn 0.000000 1.000000 0.000000
vn 0.000000 1.000000 0.000000
vn 0.000000 1.000000 0.000000
vn 1.000000 0.000000 0.000000
vn 1.000000 0.000000 0.000000
vn 1.000000 0.000000 0.000000
vn 1.000000 0.000000 0.000000
vn 0.577350 0.577350 0.577350
vn 0.577350 0.577350 0.577350
vn 0.577350 0.577350 0.577350
s off
g pCube1
usemtl initialShadingGroup
f 2/19/1 13/12/2 12/8/3 4/4/4 3/9/5
f 3/9/6 4/4/7 10/5/8 11/6/9 1/7/10
f 3/1/11 1/15/12 6/10/13 5/2/14 2/3/15
f 5/17/16 6/10/17 8/13/18 7/18/19
f 7/18/20 9/11/21 12/8/22 13/12/23
f 9/20/24 8/13/25 11/16/26 10/14/27
f 1/15/28 11/16/29 8/13/30 6/10/31
f 5/17/32 7/18/33 13/12/34 2/19/35
f 9/20/36 10/14/37 4/21/38 12/22/39
f 7/18/40 8/13/41 9/20/42
